<svg id="logosandtypes_com" xmlns="http://www.w3.org/2000/svg" viewBox="0 0 150 150"><style>.st5{fill-rule:evenodd;clip-rule:evenodd;fill:#07a8b7}</style><path d="M0 0h150v150H0V0z" fill="none"/><linearGradient id="SVGID_1_" gradientUnits="userSpaceOnUse" x1="105.284" y1="142.665" x2="49.704" y2="68.555" gradientTransform="translate(0 2)"><stop offset="0" stop-color="#07a8b7"/><stop offset=".33" stop-color="#04a7b6"/><stop offset="1" stop-color="#07959c"/></linearGradient><path d="M80.1 74.8c.2.6 28.6 12.1 51.6 61.1H88s-5.7-29.1-58.6-42.1l50.7-19z" fill-rule="evenodd" clip-rule="evenodd" fill="url(#SVGID_1_)"/><radialGradient id="SVGID_2_" cx="174.335" cy="103.465" r="69.638" gradientTransform="translate(0 2)" gradientUnits="userSpaceOnUse"><stop offset="0" stop-color="#fff"/><stop offset=".3" stop-color="#5dbcc5"/><stop offset=".56" stop-color="#01a9b8"/><stop offset=".73" stop-color="#07959c"/><stop offset="1" stop-color="#07959c"/></radialGradient><path d="M79.8 77.1L36.3 93.5c16.1 4.7 32.6 12.4 43.8 24.8 3.4 3.8 7.9 10.1 9.5 15.5h38.7c-8.1-16.5-18.8-32.7-32.4-45.1-3.7-3.4-7.8-6.5-12.1-9.3-1.1-.7-2.3-1.4-3.5-2.1l-.5-.2z" fill-rule="evenodd" clip-rule="evenodd" fill="url(#SVGID_2_)"/><linearGradient id="SVGID_3_" gradientUnits="userSpaceOnUse" x1="66.568" y1="88.861" x2="85.118" y2="133.261" gradientTransform="translate(0 2)"><stop offset="0" stop-color="#057c82"/><stop offset=".59" stop-color="#00969e"/><stop offset="1" stop-color="#0094b3"/></linearGradient><path d="M50 98.3c11.3 4.7 22.1 11.2 30.1 20.1 3.4 3.8 7.9 10.1 9.5 15.5h14.6c-2.1-5-12.8-28.4-35.9-38.6-8.8-4-14.6-1.7-18.3 3z" fill-rule="evenodd" clip-rule="evenodd" fill="url(#SVGID_3_)"/><linearGradient id="SVGID_4_" gradientUnits="userSpaceOnUse" x1="70.061" y1="104.926" x2="124.641" y2="101.286" gradientTransform="translate(0 2)"><stop offset="0" stop-color="#07a8b7"/><stop offset=".17" stop-color="#05a9b9"/><stop offset=".41" stop-color="#fff"/><stop offset=".48" stop-color="#fff"/><stop offset=".82" stop-color="#3bb3c2"/><stop offset="1" stop-color="#3bb3c2"/></linearGradient><path d="M71.8 74.6c2.5 1.5 4.8 3.1 7.1 4.8 6 4.5 11.6 9.5 16.8 14.8 11.8 12.2 21.6 26.2 28.7 41.6h-1.8c-7.1-15-16.6-28.6-28.1-40.5-5.2-5.3-10.7-10.2-16.6-14.6-2.2-1.7-4.6-3.3-7-4.7l-.7-.4.8-1.4.8.4z" fill-rule="evenodd" clip-rule="evenodd" fill="url(#SVGID_4_)"/><path class="st5" d="M25.9 14H64v121.9H25.9V14z"/><linearGradient id="SVGID_5_" gradientUnits="userSpaceOnUse" x1="71.023" y1="107.758" x2="18.823" y2="38.158" gradientTransform="translate(0 2)"><stop offset="0" stop-color="#07a8b7"/><stop offset=".33" stop-color="#04a7b6"/><stop offset="1" stop-color="#07959c"/></linearGradient><path d="M28 16.1v117.7h33.8V16.1H28z" fill-rule="evenodd" clip-rule="evenodd" fill="url(#SVGID_5_)"/><radialGradient id="SVGID_6_" cx="75.89" cy="3.87" r="28.69" gradientTransform="translate(0 2)" gradientUnits="userSpaceOnUse"><stop offset="0" stop-color="#fff"/><stop offset=".24" stop-color="#5dbcc5"/><stop offset=".56" stop-color="#01a9b8"/><stop offset=".73" stop-color="#07959c"/><stop offset="1" stop-color="#07959c"/></radialGradient><path d="M61.8 44.1v-28H30.6c7.3 4.6 17 14.9 21 37.9 3.1-3.7 6.5-7 10.2-9.9z" fill-rule="evenodd" clip-rule="evenodd" fill="url(#SVGID_6_)"/><path d="M64 95.2v40.7H25.9v-11.1c1.6-46.2 23.7-70.5 36-80.5v50.8H64z" fill-rule="evenodd" clip-rule="evenodd" fill="#05808b" fill-opacity=".5"/><path class="st5" d="M47.4 135.9H25.9S23.1 42.5 127.6 34.8V43c-1.1 17-7.9 28.6-23.7 35.1-17 7-37.2 22.8-40 57.9H47.4z"/><radialGradient id="SVGID_7_" cx="34.81" cy="38.98" r="102.29" gradientTransform="translate(0 2)" gradientUnits="userSpaceOnUse"><stop offset="0" stop-color="#fff"/><stop offset=".44" stop-color="#5dbcc5"/><stop offset=".56" stop-color="#01a9b8"/><stop offset=".73" stop-color="#07959c"/><stop offset="1" stop-color="#07959c"/></radialGradient><path d="M62 133.8c2.4-23.6 13.2-43.2 34.6-54.6 3.2-1.7 6.4-3.1 9.8-4.3 15.1-7.1 18.4-22.1 19.1-30.9v-6.8c-36.6 3.2-68.8 18.2-86.1 52.1-6.2 12.2-11.4 30.3-11.4 44.6h34z" fill-rule="evenodd" clip-rule="evenodd" fill="url(#SVGID_7_)"/><radialGradient id="SVGID_8_" cx="52.8" cy="53.82" r="85.2" gradientTransform="translate(0 2)" gradientUnits="userSpaceOnUse"><stop offset="0" stop-color="#6ec0cb"/><stop offset=".18" stop-color="#63bec7"/><stop offset=".35" stop-color="#2fb0bc"/><stop offset=".57" stop-color="#02a2af"/><stop offset="1" stop-color="#07959c"/></radialGradient><path d="M62 133.8c2.4-23.6 13.2-43.2 34.6-54.6 3.2-1.7 6.4-3.1 9.8-4.3 10.8-5.1 15.6-14.3 17.7-22.3-30.7 5-57 18.3-72 47.8-4.7 9.2-6.6 21.7-7.3 33.5H62z" fill-rule="evenodd" clip-rule="evenodd" fill="url(#SVGID_8_)"/><linearGradient id="SVGID_9_" gradientUnits="userSpaceOnUse" x1="25.9" y1="33.206" x2="63.96" y2="33.206" gradientTransform="translate(0 2)"><stop offset="0" stop-color="#07a8b7"/><stop offset=".12" stop-color="#00a9b8"/><stop offset=".41" stop-color="#fff"/><stop offset=".48" stop-color="#fff"/><stop offset=".91" stop-color="#03979f"/><stop offset="1" stop-color="#07959c"/></linearGradient><path d="M51.8 52.6c1.7-1.9 3.6-3.8 5.4-5.5s4.6-4 6.7-5.6v2.1c-1.8 1.4-4 3.2-5.6 4.7-2.3 2.1-4.5 4.3-6.4 6.7l-1.2 1.5-.3-1.9C48.8 42.9 44.9 29 36 20.6c-2.3-2.2-6.7-5.3-10.1-5.8V14c1-.1 2.1-.1 3.1 0 3 1.3 5.7 3.1 8.1 5.4 8.8 8.3 12.9 21.4 14.7 33.2z" fill-rule="evenodd" clip-rule="evenodd" fill="url(#SVGID_9_)"/><linearGradient id="SVGID_10_" gradientUnits="userSpaceOnUse" x1="120.4" y1="79.632" x2="49" y2="88.332" gradientTransform="translate(0 2)"><stop offset="0" stop-color="#07a8b7"/><stop offset=".12" stop-color="#00a9b8"/><stop offset=".41" stop-color="#fff"/><stop offset=".48" stop-color="#fff"/><stop offset=".79" stop-color="#059da5"/><stop offset="1" stop-color="#07959c"/></linearGradient><path d="M117.8 35.9c.3 5.8-.4 11.5-2 17.1-1.6 5.1-4.4 9.8-9.2 12.6-4.7 2.8-9.5 5.2-14.2 8.1-6.4 3.9-12.3 8.5-17.5 13.8-13.2 13.6-19.7 30.3-21.8 48.4h-1.7c2.1-18.6 8.8-35.7 22.3-49.6 5.3-5.4 11.3-10.1 17.8-14 4.7-2.9 9.5-5.3 14.2-8.1 1.8-1.1 3.4-2.5 4.7-4.2 1.7-2.3 2.9-4.8 3.7-7.5 1.5-5.3 2.2-10.8 1.9-16.3l1.8-.3z" fill-rule="evenodd" clip-rule="evenodd" fill="url(#SVGID_10_)"/></svg>